<?xml version="1.0" encoding="UTF-8" standalone="no"?>
<svg width="282px" height="382px" viewBox="0 0 282 382" version="1.1" xmlns="http://www.w3.org/2000/svg" xmlns:xlink="http://www.w3.org/1999/xlink">
    <!-- Generator: Sketch 3.6 (26304) - http://www.bohemiancoding.com/sketch -->
    <title>Shape</title>
    <desc>Created with Sketch.</desc>
    <defs></defs>
    <g id="Page-1" stroke="none" stroke-width="1" fill="none" fill-rule="evenodd">
        <g id="itiraf-yaz" transform="translate(-516.000000, -862.000000)" fill="#000000">
            <path d="M665.294103,1102.79059 C665.294113,1102.80242 665.294118,1102.81425 665.294118,1102.82609 C665.294118,1125.75791 646.687776,1144.34783 623.707382,1144.34783 L615.529412,1144.34783 L615.529412,1127.73913 L623.795734,1127.73913 C637.572035,1127.73913 648.705882,1116.58518 648.705882,1102.82609 C648.705882,1088.97107 637.553229,1077.91304 623.795734,1077.91304 L557.498384,1077.91304 C543.722083,1077.91304 532.588235,1089.06699 532.588235,1094.52174 L524.294118,1094.52174 L516,1094.52174 L516,903.58118 C516,880.616528 534.407335,862 557.470588,862 C580.374162,862 598.941176,880.60272 598.941176,903.58118 L598.941176,953.285469 C605.852023,948.108992 614.453527,945.043478 623.823529,945.043478 C637.360178,945.043478 649.382006,951.585928 656.951076,961.634718 C664.48714,951.560065 676.514977,945.043478 690.176471,945.043478 C699.512379,945.043478 708.127756,948.155419 715.058824,953.383312 L715.058824,920.130435 C715.058824,897.198612 733.46616,878.608696 756.529412,878.608696 C779.432986,878.608696 798,897.294955 798,920.130435 L798,1094.52174 L781.411765,1094.52174 L781.411765,1077.91304 L781.411765,1094.52174 L781.411765,920.101291 C781.411765,906.432398 770.271555,895.217391 756.529412,895.217391 C742.691459,895.217391 731.647059,906.358292 731.647059,920.101291 L731.647059,1023.91507 L731.647059,1069.64811 C731.647059,1092.55817 713.239723,1111.13043 690.176471,1111.13043 C680.840555,1111.13043 672.225172,1108.01849 665.294103,1102.79059 L665.294103,1102.79059 Z M648.705882,1069.5932 C641.747461,1064.38021 633.090308,1061.30435 623.707382,1061.30435 L557.586735,1061.30435 C548.201076,1061.30435 539.545039,1064.40528 532.588235,1069.07071 L532.588235,1069.07071 L532.588235,903.047027 C532.588235,889.27174 543.632636,878.104663 557.470588,878.104663 C571.212732,878.104663 582.352941,889.112146 582.352941,903.047027 L582.352941,1061.30435 L590.647059,1061.30435 L598.941176,1061.30435 L598.941176,986.643923 C598.941176,972.841361 609.985578,961.652174 623.823529,961.652174 C637.565673,961.652174 648.705882,972.752023 648.705882,986.643923 L648.705882,1069.5932 L648.705882,1069.5932 L648.705882,1069.5932 Z M690.176471,961.652174 C703.918614,961.652174 715.058824,972.752023 715.058824,986.643923 L715.058824,1069.52999 C715.058824,1083.33255 704.014423,1094.52174 690.176471,1094.52174 C676.434327,1094.52174 665.294118,1083.42189 665.294118,1069.52999 L665.294118,1028.22381 L665.294118,986.643923 C665.294118,972.841361 676.338518,961.652174 690.176471,961.652174 L690.176471,961.652174 Z M798,1094.52174 L516,1094.52174 L516,1102.90778 C516,1180.83086 579.12785,1244 657,1244 C734.87215,1244 798,1180.83086 798,1102.90778 L798,1094.52174 L798,1094.52174 Z M781.411765,1094.52174 L532.588235,1094.52174 L532.588235,1101.97599 C532.588235,1171.24096 588.28928,1227.3913 657,1227.3913 C725.71072,1227.3913 781.411765,1171.24096 781.411765,1101.97599 L781.411765,1094.52174 L781.411765,1094.52174 L781.411765,1094.52174 Z" id="Shape"></path>
        </g>
    </g>
</svg>